<?xml version="1.0" encoding="utf-8"?>
<!-- Generator: Adobe Illustrator 19.0.0, SVG Export Plug-In . SVG Version: 6.00 Build 0)  -->
<svg version="1.1" id="Layer_1" xmlns="http://www.w3.org/2000/svg" xmlns:xlink="http://www.w3.org/1999/xlink" x="0px" y="0px"
	 viewBox="0 0 382.9 500" style="enable-background:new 0 0 382.9 500;" xml:space="preserve">
<style type="text/css">
	.st0{fill:#FFFFFF;}
</style>
<g id="XMLID_12_">
	<g id="XMLID_11_">
		<path id="XMLID_21_" class="st0" d="M347,487.7c6.9-18.8,10.8-39,10.8-60.2c0-94.5-74.9-171.3-166.9-171.3S24.1,333,24.1,427.5
			c0,21.2,3.9,41.4,10.8,60.2H0V500h40h13.3h275.3h13.3h41v-12.3H347z M334.2,487.7H47.7c-7.4-18.6-11.6-38.9-11.6-60.2
			c0-87.7,69.5-159,154.9-159s154.9,71.3,154.9,159C345.8,448.8,341.6,469.1,334.2,487.7z"/>
		<circle id="XMLID_8_" class="st0" cx="190.9" cy="310.3" r="12.3"/>
		<path id="XMLID_7_" class="st0" d="M81.5,443.5c-6.8,0-12.4,5.5-12.4,12.3c0,6.8,5.5,12.3,12.4,12.3c6.8,0,12.3-5.5,12.3-12.3
			C93.8,449,88.3,443.5,81.5,443.5z"/>
		<path id="XMLID_6_" class="st0" d="M84,375.9c-6.8,0-12.3,5.5-12.3,12.3c0,6.8,5.5,12.4,12.3,12.4s12.3-5.5,12.3-12.4
			C96.4,381.4,90.9,375.9,84,375.9z"/>
		<path id="XMLID_5_" class="st0" d="M118.9,320.1c-6.8,0-12.3,5.5-12.3,12.3c0,6.8,5.5,12.3,12.3,12.3c6.8,0,12.4-5.5,12.4-12.3
			C131.2,325.6,125.7,320.1,118.9,320.1z"/>
		<path id="XMLID_4_" class="st0" d="M263.3,320.1c-6.8,0-12.3,5.5-12.3,12.3c0,6.8,5.5,12.3,12.3,12.3s12.3-5.5,12.3-12.3
			C275.7,325.6,270.2,320.1,263.3,320.1z"/>
		<path id="XMLID_3_" class="st0" d="M288,388.2c0,6.8,5.5,12.4,12.3,12.4c6.8,0,12.3-5.5,12.3-12.4c0-6.8-5.5-12.3-12.3-12.3
			C293.6,375.9,288,381.4,288,388.2z"/>
		<path id="XMLID_2_" class="st0" d="M300.4,443.5c-6.8,0-12.3,5.5-12.3,12.3c0,6.8,5.5,12.3,12.3,12.3c6.8,0,12.3-5.5,12.3-12.3
			C312.7,449,307.2,443.5,300.4,443.5z"/>
	</g>
	<path id="XMLID_1_" class="st0" d="M302.7,109.5c-5.6-5.6-11.2-11.2-17.2-17.2c-27.2,27.2-54.6,54.6-81.9,81.9c0-81,0-93.1,0-174.2
		c-8.1,0-16.2,0-24.3,0c0,81.1,0,93.3,0,174.7c-27.6-27.6-55-55-82.2-82.2c-5.8,5.8-11.4,11.4-16.9,16.9
		c37.1,37.1,74.3,74.3,111.3,111.3C228.6,183.6,265.7,146.5,302.7,109.5z"/>
</g>
</svg>
