<?xml version="1.0" encoding="utf-8"?>
<!-- Generator: Adobe Illustrator 19.0.0, SVG Export Plug-In . SVG Version: 6.00 Build 0)  -->
<svg version="1.1" id="Layer_1" xmlns="http://www.w3.org/2000/svg" xmlns:xlink="http://www.w3.org/1999/xlink" x="0px" y="0px"
	 viewBox="0 0 500 476.5" style="enable-background:new 0 0 500 476.5;" xml:space="preserve">
<style type="text/css">
	.st0{fill:none;}
	.st1{fill:#1C304E;}
	.st2{fill:#FFFFFF;}
</style>
<g>
	<polygon id="XMLID_7_" class="st0" points="251.1,191.1 220.9,191.1 220.9,402.8 282.1,403 282.1,191.1 	"/>
	<polygon id="XMLID_6_" class="st0" points="119,191.1 119,402.4 180.1,402.6 180.1,191.1 	"/>
	<polygon id="XMLID_5_" class="st0" points="322.9,191.1 322.9,403.1 384,403.4 384,191.1 	"/>
	<path class="st1" d="M113.9,402.4V192.2h65.9v210.4l43.9,0.2V192.2h27.5h27.5V403l43.9,0.2V192.2h65.9v211.2l43.9,0.2V192.2h44.5
		L364,96.1L251.1,0L138.3,96.1L25.5,192.2h44.5v211.3h0.4l1.4-1.4L113.9,402.4z M247,96.1c17.4,0,31.6,14.1,31.6,31.6
		c0,17.4-14.2,31.6-31.6,31.6c-17.4,0-31.6-14.1-31.6-31.6C215.4,110.3,229.6,96.1,247,96.1z"/>
	<polygon id="XMLID_2_" class="st1" points="388.4,403.4 322.5,403.1 278.6,403 223.7,402.8 179.8,402.6 113.9,402.4 71.8,402.2 
		70.3,397.7 0.8,476.5 500,476.5 432.3,403.6 	"/>
	<path id="XMLID_1_" class="st2" d="M247,159.3c17.4,0,31.6-14.1,31.6-31.6c0-17.4-14.2-31.6-31.6-31.6c-17.4,0-31.6,14.1-31.6,31.6
		C215.4,145.1,229.6,159.3,247,159.3z"/>
</g>
</svg>
