<?xml version="1.0" encoding="utf-8"?>
<!-- Generator: Adobe Illustrator 19.0.0, SVG Export Plug-In . SVG Version: 6.00 Build 0)  -->
<svg version="1.1" id="Layer_1" xmlns="http://www.w3.org/2000/svg" xmlns:xlink="http://www.w3.org/1999/xlink" x="0px" y="0px"
	 viewBox="0 0 500 500" style="enable-background:new 0 0 500 500;" xml:space="preserve">
<style type="text/css">
	.st0{fill-rule:evenodd;clip-rule:evenodd;fill:#1C304E;}
</style>
<g id="vrpprg.tif_3_">
	<g>
		<path class="st0" d="M253.7,393.3c-11.8,5-22.7,9.4-33.4,14.1c-4.7,2.1-12.7-4.6-13.4,7.1c-5-7.8-1.1-16,7.8-16.8
			c9.3-0.8,16-5.1,22.9-10.3c3.3-2.4,8.1-2.9,13.8-4.7c-8.6-26.9,3.9-52.8,13.1-79.3c-0.8-0.3-1.7-0.6-2.5-0.9
			c-2.3,2.7-4.5,5.5-6.8,8.2c-18.2-11.4-35.9-22.6-53.8-33.6c-4.3-2.7-8.8-5.2-13.5-6.9c-23.5-8.5-46.7-18.9-71-24
			c-13.5-2.9-29.2,2.2-43.5,5.7c-10.7,2.6-20.3,9.2-30.9,12.5c-8.6,2.6-17.9,2.9-26.8,4.3c-0.3-1.2-0.5-2.3-0.8-3.5
			c16.1-6.4,32.1-12.8,48.2-19.2c-0.4-1.3-0.9-2.5-1.3-3.8c-20.2,6.6-40.4,13.1-60.5,19.7c-0.3-0.8-0.6-1.6-0.9-2.4
			c13.6-5.5,27.2-11,40.8-16.5c0.3-0.1,0.7-0.1,0.9-0.3c10.5-9.3,23.2-5.5,35.3-6c4.6-0.2,9.1-1.5,13.4-3.8c-13.8-1-27.6-2-41.4-3
			c-0.1-1.3-0.3-2.5-0.5-3.8c33.2-8.6,66.5-17.1,100.1-25.8c-7.2-1.7-14.5-3.4-21.7-5.2c0-1.3-0.1-2.6-0.1-3.9
			c37.4-6.7,71.4-25.7,112-28.2c-4.4-1.7-6.8-2.7-7.7-3.1c35.5-10,71.9-20.1,108.2-30.5c14.3-4.1,26.2-12.4,37-22.8
			c8.7-8.3,17.9-16.2,27.7-23c15.5-10.8,32.3-10.5,48.8-2.3c6.6,3.3,12.1,8.8,19.8,14.5c-5,2.1-9,3.7-13,5.3c0,0.6-0.1,1.2-0.1,1.8
			c3.8,0,9.2,1.6,11.2-0.3c7.6-7.3,13.8-2.4,20.3,1c3,1.5,5.8,3.5,8.7,5.2c0,1.2,0,2.3,0.1,3.5c-14.7,2.6-29.4,5.2-44.1,7.9
			c0.2,0.9,0.4,1.8,0.6,2.7c2,0,4.1,0,5.1,0c-0.7,12.2-1.4,24.3-2.2,36.8c-1.1-1.6-2-2.8-2.7-3.9c-3.9,21-7.7,42.1-11.9,64.6
			c-3-2.4-4.8-3.9-6.7-5.4c-8,11.9-16.1,23.8-24.4,36.1c-0.4-1.5-1-3.4-1.8-6.1c-9.9,10.5-19.3,20.6-29.7,31.6
			c-0.4-2.9-0.7-4.6-1-6.9c-1.9,1.2-3.4,2.7-5.3,3.2c-31.9,9.5-42,35.4-47.5,64.1c-3.6,18.5,2.9,25.4,21.9,26.9
			c6.1,0.5,13.8-1.8,17.5,7.1c-10.5,0-20.5,0-31.2,0c5,6.3,9.9,12.5,14.8,18.6c-0.6,0.7-1.2,1.4-1.8,2.1
			c-9.1-4.5-17.9-11.6-27.4-12.7c-10.3-1.2-21.3,3.3-33.7,5.6c4.6,3.2,7.7,5.3,12.8,8.8c-12.9,0-23,0-33.5,0
			c-0.9,10,13.7,17.5,7.9,31.2C268.6,414.3,261.3,404,253.7,393.3z M329.6,290.8c-34.1,5.7-34.1,5.7-50.7,33.8
			c-1,1.6-2.2,3.1-3.2,4.8c-8,14.7-13.9,29.9-11.3,47.1c0.9,6.1,12,11.2,14.7,6.6c4.9-8.3,12.2-7.6,19.6-8.8
			c15.2-2.5,15.2-2.8,16-18.7c0.5-9.5,0.2-19,1-28.5C316.9,313.7,315.6,299.5,329.6,290.8z M227.6,239.7c26.2,20.1,77.7,23.9,96,6
			C290.6,257.7,258.9,252.3,227.6,239.7z M350.2,152.7c-20,27.5-49.4,28.7-80.1,33C294.7,193.6,351.8,173.7,350.2,152.7z
			 M313.7,202.7c-16.6,8.4-34.2,9.7-52,8.5c-17.5-1.2-34.9-3.7-54.7-5.8C230.8,219.8,298.2,217.7,313.7,202.7z M269.3,226.8
			c-28,14.7-57.3,0.5-85.9,2.7C212.3,233.3,241.5,244.8,269.3,226.8z M383.7,193.9c-11.3,20.5-33,25.5-51.6,34.8
			C359.3,224.7,381.1,210.3,383.7,193.9z M400.9,182.6c-6.4,22.5-15.6,42.9-38.9,53.1C382.9,232.6,403.3,204.5,400.9,182.6z
			 M332.6,195.4c21.8-5.6,44.1-29,41.4-43.9C364.9,171.5,351.3,186,332.6,195.4z M211,249.6c-17.2-3.6-34.5-7.2-51.7-10.8
			c-0.2,0.9-0.3,1.7-0.5,2.6C176.2,244.5,192.2,254.5,211,249.6z M423.7,106.3c11.6,4.1,13.5-2.5,16-8.5c-9.9-9.2-9.9-9.2-18.6-3.6
			c3.5,2.5,6.7,4.7,10.3,7.3C429.5,102.7,427.5,103.9,423.7,106.3z M392.9,150.8c-1.3,17.9-11,30.7-24.6,41.1
			C384.7,187,399,166.5,392.9,150.8z M241.5,198c0.2-1,0.4-2.1,0.6-3.1c-11.1-2.5-22.2-5-33.2-7.5c-0.2,0.9-0.4,1.8-0.6,2.6
			C219.4,192.7,230.4,195.4,241.5,198z M385.3,122.6c0.9,0.5,1.8,1,2.6,1.6c4.8-8,9.6-15.9,14.3-23.9c-0.9-0.5-1.8-1.1-2.8-1.6
			C394.7,106.7,390,114.7,385.3,122.6z M159.8,190.8c0.2,1.1,0.5,2.1,0.7,3.2c8.4-2,16.7-4,25.1-6c-0.3-1.1-0.5-2.3-0.8-3.4
			C176.5,186.7,168.1,188.8,159.8,190.8z M436.5,178.7c8.3-10.4,10-21.3,5.7-28.1C440.4,159.2,438.7,167.8,436.5,178.7z
			 M414.3,217.7c-1.3-1.2-2.5-2.5-3.8-3.7c-6.2,6.4-12.4,12.8-18.6,19.2c1.2,1.2,2.4,2.3,3.5,3.5C401.8,230.3,408,224,414.3,217.7z"
			/>
	</g>
</g>
</svg>
