<?xml version="1.0" encoding="utf-8"?>
<!-- Generator: Adobe Illustrator 19.0.0, SVG Export Plug-In . SVG Version: 6.00 Build 0)  -->
<svg version="1.1" id="Layer_1" xmlns="http://www.w3.org/2000/svg" xmlns:xlink="http://www.w3.org/1999/xlink" x="0px" y="0px"
	 viewBox="72.6 0 361.6 500" style="enable-background:new 72.6 0 361.6 500;" xml:space="preserve">
<style type="text/css">
	.st0{fill:#F39500;}
</style>
<g>
	<g>
		<path class="st0" d="M367.2,231.4c26.8-13.6,43.5-37.6,39.6-77.5c-5.3-54.6-52.5-72.9-112-78.1L294.7,0h-46.1v73.7
			c-12.1,0-24.5,0.2-36.9,0.5V0h-46.1v75.7c-10,0.2-19.8,0.4-29.4,0.4v-0.2l-63.7-0.1v49.2c0,0,34.1-0.7,33.5,0
			c18.7,0,24.8,10.9,26.6,20.2l0,86.3v121.2c-0.8,5.9-4.3,15.3-17.4,15.3c0.6,0.5-33.5,0-33.5,0l-9.2,55.1h60
			c11.2,0,22.2,0.2,33,0.2l0.1,76.6h46.1l0-75.8c12.7,0.3,24.9,0.4,36.9,0.3V500h46.1l0.1-76.5c77.5-4.4,131.9-24,138.6-96.7
			C438.9,268.1,411.3,242,367.2,231.4z M212.9,128.4c26,0,107.9-8.2,107.9,46.1c0,52.1-81.9,46-107.9,46V128.4z M212.8,368.4
			l0.1-101.5c31.3,0,129.4-9,129.4,50.7C342.2,374.9,244.2,368.4,212.8,368.4z"/>
	</g>
</g>
</svg>
