<?xml version="1.0" encoding="utf-8"?>
<!-- Generator: Adobe Illustrator 19.0.0, SVG Export Plug-In . SVG Version: 6.00 Build 0)  -->
<svg version="1.1" id="Layer_1" xmlns="http://www.w3.org/2000/svg" xmlns:xlink="http://www.w3.org/1999/xlink" x="0px" y="0px"
	 viewBox="0 0 500 500" style="enable-background:new 0 0 500 500;" xml:space="preserve">
<style type="text/css">
	.st0{fill:#1C2F4E;}
</style>
<g>
	<path class="st0" d="M250.2,500c-137.9,0-250-112.1-250-250S112.3,0,250.2,0c137.9,0,250,112.1,250,250S388,500,250.2,500z
		 M250.2,29.4c-121.6,0-220.6,99-220.6,220.6s99,220.6,220.6,220.6c121.6,0,220.6-98.9,220.6-220.6S371.8,29.4,250.2,29.4z
		 M390.8,229.3H109.6c-8.6,0-15.6-7-15.6-15.6c0-8.6,7-15.7,15.6-15.7h227.8l-36.2-22.7c-6.8-4.3-9-13.5-4.8-20.5l1.2-2
		c4.1-7,13.1-9.3,19.9-5l82.1,51.5c4.6,2.9,6.9,8.1,6.7,13.4c0,0.4,0.2,0.7,0.2,1.1C406.4,222.2,399.4,229.3,390.8,229.3z
		 M94.1,296.1c0-0.1,0-0.2,0-0.3c0.4-4.8,2.9-9,6.7-11.6c0.2-0.2,0.4-0.3,0.6-0.4c1.1-0.7,2.2-1.3,3.5-1.7c1-0.4,2-0.5,3.1-0.6
		c0.5,0,1-0.3,1.5-0.3h281.3c8.6,0,15.6,7,15.6,15.7c0,8.7-7,15.7-15.6,15.7H162.9l35.3,22.4c6.7,4.3,8.9,13.6,4.8,20.6l-1.2,2
		c-4.1,7-13,9.3-19.7,5L100.8,311c-4.4-2.8-6.6-7.8-6.6-12.9c0-0.4-0.3-0.8-0.3-1.2C94,296.6,94.1,296.4,94.1,296.1z"/>
</g>
</svg>
