<?xml version="1.0" encoding="utf-8"?>
<!-- Generator: Adobe Illustrator 19.0.0, SVG Export Plug-In . SVG Version: 6.00 Build 0)  -->
<svg version="1.1" id="Layer_1" xmlns="http://www.w3.org/2000/svg" xmlns:xlink="http://www.w3.org/1999/xlink" x="0px" y="0px"
	 viewBox="0 103.5 500 301.9" style="enable-background:new 0 103.5 500 301.9;" xml:space="preserve">
<style type="text/css">
	.st0{fill:#1C304E;}
	.st1{fill:#FFFFFF;}
</style>
<g>
	<path id="XMLID_18_" class="st0" d="M348.5,265.2c2.2,0,4.4-1.3,6.4-4.3c1.9-2.9,3.3-7.3,3.3-12.2c0-5-1.4-9.3-3.3-12.3
		c-2-2.9-4.3-4.3-6.4-4.2c-2.1-0.1-4.5,1.3-6.6,4.2c-1.9,3-3.3,7.3-3.3,12.3c0,4.9,1.4,9.3,3.3,12.2
		C344,263.9,346.4,265.2,348.5,265.2z"/>
	<path id="XMLID_17_" class="st0" d="M449.5,265.2c2.2,0,4.4-1.3,6.4-4.3c1.9-2.9,3.3-7.3,3.3-12.2c0-5-1.4-9.3-3.3-12.3
		c-2-2.9-4.3-4.3-6.4-4.2c-2.2-0.1-4.5,1.3-6.6,4.2c-1.9,3-3.3,7.3-3.3,12.3c0,4.9,1.4,9.3,3.3,12.2
		C445,263.9,447.4,265.2,449.5,265.2z"/>
	<path id="XMLID_16_" class="st0" d="M399,265.2c2.2,0,4.4-1.3,6.4-4.3c1.9-2.9,3.3-7.3,3.3-12.2c0-5-1.4-9.3-3.3-12.3
		c-2-2.9-4.3-4.3-6.4-4.2c-2.1-0.1-4.5,1.3-6.6,4.2c-1.9,3-3.3,7.3-3.3,12.3c0,4.9,1.4,9.3,3.3,12.2
		C394.5,263.9,396.9,265.2,399,265.2z"/>
	<path id="XMLID_15_" class="st0" d="M298,265.2c2.2,0,4.4-1.3,6.4-4.3c1.9-2.9,3.3-7.3,3.3-12.2c0-5-1.4-9.3-3.3-12.3
		c-2-2.9-4.3-4.3-6.4-4.2c-2.1-0.1-4.5,1.3-6.6,4.2c-1.9,3-3.3,7.3-3.3,12.3c0,4.9,1.4,9.3,3.3,12.2
		C293.6,263.9,295.9,265.2,298,265.2z"/>
	<path class="st0" d="M137,284.6h363V143.8c0-22.9-23.4-40.3-46.4-40.3H45.5c-23,0-44.6,17.3-44.6,40.3v221.3
		c0,22.9,21.6,40.3,44.6,40.3h408.1c23,0,46.4-17.3,46.4-40.3V345H137V284.6z M436.7,232.2c2.9-4.4,7.4-7.7,12.9-7.7
		c5.3,0,9.9,3.2,12.8,7.7c3,4.4,4.6,10.2,4.6,16.5s-1.7,12.1-4.6,16.5c-2.9,4.4-7.5,7.7-12.8,7.7c-5.5,0-9.9-3.3-12.9-7.7
		c-3.1-4.4-4.6-10.2-4.7-16.5C432,242.3,433.6,236.6,436.7,232.2z M386.2,232.2c2.9-4.4,7.4-7.7,12.9-7.7c5.3,0,9.9,3.2,12.8,7.7
		c3,4.4,4.6,10.2,4.6,16.5s-1.7,12.1-4.6,16.5c-2.9,4.4-7.5,7.7-12.8,7.7c-5.5,0-9.9-3.3-12.9-7.7c-3.1-4.4-4.6-10.2-4.7-16.5
		C381.6,242.3,383.1,236.6,386.2,232.2z M335.7,232.2c2.9-4.4,7.4-7.7,12.9-7.7c5.3,0,9.9,3.2,12.8,7.7c3,4.4,4.6,10.2,4.6,16.5
		s-1.7,12.1-4.6,16.5c-2.9,4.4-7.5,7.7-12.8,7.7c-5.5,0-9.9-3.3-12.9-7.7c-3.1-4.4-4.6-10.2-4.7-16.5
		C331.1,242.3,332.6,236.6,335.7,232.2z M285.2,232.2c2.9-4.4,7.4-7.7,12.9-7.7c5.3,0,9.9,3.2,12.8,7.7c3,4.4,4.6,10.2,4.6,16.5
		s-1.7,12.1-4.6,16.5c-2.9,4.4-7.5,7.7-12.8,7.7c-5.5,0-9.9-3.3-12.9-7.7c-3.1-4.4-4.6-10.2-4.7-16.5
		C280.6,242.3,282.1,236.6,285.2,232.2z"/>
	<polygon id="XMLID_9_" class="st1" points="500,284.6 480.9,284.6 136.8,284.6 136.8,345 480.9,345 500,345 	"/>
	<path class="st1" d="M298,272.9c5.3,0,9.9-3.3,12.8-7.7c3-4.4,4.6-10.2,4.6-16.5c0-6.4-1.7-12.1-4.6-16.5s-7.5-7.7-12.8-7.7
		c-5.5,0-9.9,3.2-12.9,7.7c-3.1,4.4-4.6,10.2-4.7,16.5c0.1,6.3,1.7,12.1,4.7,16.5C288.1,269.6,292.6,272.9,298,272.9z M291.5,236.4
		c2.1-2.9,4.4-4.3,6.6-4.2c2.2-0.1,4.4,1.3,6.4,4.2c1.9,3,3.3,7.3,3.3,12.3c0,4.9-1.4,9.3-3.3,12.2c-2,3-4.3,4.3-6.4,4.3
		s-4.5-1.3-6.6-4.3c-1.9-2.9-3.3-7.3-3.3-12.2C288.2,243.7,289.5,239.3,291.5,236.4z"/>
	<path class="st1" d="M348.5,272.9c5.3,0,9.9-3.3,12.8-7.7c3-4.4,4.6-10.2,4.6-16.5c0-6.4-1.7-12.1-4.6-16.5s-7.5-7.7-12.8-7.7
		c-5.5,0-9.9,3.2-12.9,7.7c-3.1,4.4-4.6,10.2-4.7,16.5c0.1,6.3,1.7,12.1,4.7,16.5C338.6,269.6,343.1,272.9,348.5,272.9z M342,236.4
		c2.1-2.9,4.4-4.3,6.6-4.2c2.2-0.1,4.4,1.3,6.4,4.2c1.9,3,3.3,7.3,3.3,12.3c0,4.9-1.4,9.3-3.3,12.2c-2,3-4.3,4.3-6.4,4.3
		s-4.5-1.3-6.6-4.3c-1.9-2.9-3.3-7.3-3.3-12.2C338.7,243.7,340,239.3,342,236.4z"/>
	<path class="st1" d="M399,272.9c5.3,0,9.9-3.3,12.8-7.7c3-4.4,4.6-10.2,4.6-16.5c0-6.4-1.7-12.1-4.6-16.5s-7.5-7.7-12.8-7.7
		c-5.5,0-9.9,3.2-12.9,7.7c-3.1,4.4-4.6,10.2-4.7,16.5c0.1,6.3,1.7,12.1,4.7,16.5C389.1,269.6,393.6,272.9,399,272.9z M392.5,236.4
		c2.1-2.9,4.4-4.3,6.6-4.2c2.2-0.1,4.4,1.3,6.4,4.2c1.9,3,3.3,7.3,3.3,12.3c0,4.9-1.4,9.3-3.3,12.2c-2,3-4.3,4.3-6.4,4.3
		s-4.5-1.3-6.6-4.3c-1.9-2.9-3.3-7.3-3.3-12.2C389.2,243.7,390.5,239.3,392.5,236.4z"/>
	<path class="st1" d="M449.5,272.9c5.3,0,9.9-3.3,12.8-7.7c3-4.4,4.6-10.2,4.6-16.5c0-6.4-1.7-12.1-4.6-16.5s-7.5-7.7-12.8-7.7
		c-5.5,0-9.9,3.2-12.9,7.7c-3.1,4.4-4.6,10.2-4.7,16.5c0.1,6.3,1.7,12.1,4.7,16.5C439.6,269.6,444.1,272.9,449.5,272.9z M443,236.4
		c2.1-2.9,4.4-4.3,6.6-4.2c2.2-0.1,4.4,1.3,6.4,4.2c1.9,3,3.3,7.3,3.3,12.3c0,4.9-1.4,9.3-3.3,12.2c-2,3-4.3,4.3-6.4,4.3
		c-2.2,0-4.5-1.3-6.6-4.3c-1.9-2.9-3.3-7.3-3.3-12.2C439.7,243.7,441,239.3,443,236.4z"/>
</g>
</svg>
