<?xml version="1.0" encoding="utf-8"?>
<!-- Generator: Adobe Illustrator 19.0.0, SVG Export Plug-In . SVG Version: 6.00 Build 0)  -->
<svg version="1.1" id="Layer_1" xmlns="http://www.w3.org/2000/svg" xmlns:xlink="http://www.w3.org/1999/xlink" x="0px" y="0px"
	 viewBox="0 0 500 500" style="enable-background:new 0 0 500 500;" xml:space="preserve">
<style type="text/css">
	.st0{fill:none;}
	.st1{fill:#1C304E;}
</style>
<g>
	<path class="st0" d="M250,20.3c-126.5,0-229.5,102.9-229.5,229.5c0,126.5,102.9,229.4,229.5,229.4c126.5,0,229.4-102.9,229.4-229.4
		C479.4,123.2,376.5,20.3,250,20.3z"/>
	<path class="st1" d="M250-0.3C112.1-0.3,0,111.9,0,249.7c0,137.8,112.1,250,250,250c137.8,0,250-112.2,250-250
		C500,111.9,387.8-0.3,250-0.3z M250,479.2c-126.5,0-229.5-102.9-229.5-229.4C20.5,123.2,123.5,20.3,250,20.3
		c126.5,0,229.4,102.9,229.4,229.5C479.4,376.2,376.5,479.2,250,479.2z"/>
</g>
<g id="XMLID_6_">
	<path id="XMLID_7_" class="st1" d="M159.4,241.6c-9,0-16.4,7.2-16.4,16.3c0,9,7.3,16.3,16.4,16.3h97.8c9,0,16.3-7.3,16.3-16.3
		V127.6c0-9-7.3-16.4-16.3-16.4c-9,0-16.3,7.3-16.3,16.4v114H159.4L159.4,241.6z"/>
</g>
</svg>
