<?xml version="1.0" encoding="utf-8"?>
<!-- Generator: Adobe Illustrator 19.0.0, SVG Export Plug-In . SVG Version: 6.00 Build 0)  -->
<svg version="1.1" id="Layer_1" xmlns="http://www.w3.org/2000/svg" xmlns:xlink="http://www.w3.org/1999/xlink" x="0px" y="0px"
	 viewBox="-152 232 194 38" style="enable-background:new -152 232 194 38;" xml:space="preserve">
<style type="text/css">
	.st0{fill:#C1C1C1;}
</style>
<g>
	<g id="vrpprg.tif_20_">
		<g>
			<path class="st0" d="M-124.5,266.5c-1.3,0.5-2.4,1-3.6,1.5c-0.5,0.2-1.4-0.5-1.4,0.8c-0.5-0.8-0.1-1.7,0.8-1.8
				c1-0.1,1.7-0.6,2.5-1.1c0.4-0.3,0.9-0.3,1.5-0.5c-0.9-2.9,0.4-5.7,1.4-8.6c-0.1,0-0.2-0.1-0.3-0.1c-0.2,0.3-0.5,0.6-0.7,0.9
				c-2-1.2-3.9-2.4-5.8-3.6c-0.5-0.3-1-0.6-1.5-0.7c-2.5-0.9-5.1-2-7.7-2.6c-1.5-0.3-3.2,0.2-4.7,0.6c-1.2,0.3-2.2,1-3.3,1.3
				c-0.9,0.3-1.9,0.3-2.9,0.5c0-0.1-0.1-0.3-0.1-0.4c1.7-0.7,3.5-1.4,5.2-2.1c0-0.1-0.1-0.3-0.1-0.4c-2.2,0.7-4.4,1.4-6.5,2.1
				c0-0.1-0.1-0.2-0.1-0.3c1.5-0.6,2.9-1.2,4.4-1.8h0.1c1.1-1,2.5-0.6,3.8-0.6c0.5,0,1-0.2,1.5-0.4c-1.5-0.1-3-0.2-4.5-0.3
				c0-0.1,0-0.3,0-0.4c3.6-0.9,7.2-1.9,10.8-2.8c-0.8-0.2-1.6-0.4-2.3-0.6c0-0.1,0-0.3,0-0.4c4-0.7,7.7-2.8,12.1-3.1
				c-0.5-0.2-0.7-0.3-0.8-0.3c3.7-1.1,7.6-2.2,11.5-3.3c1.5-0.4,2.8-1.3,4-2.5c0.9-0.9,1.9-1.7,3-2.5c1.7-1.2,3.5-1.1,5.3-0.3
				c0.7,0.4,1.3,0.9,2.1,1.6c-0.5,0.2-1,0.4-1.4,0.6c0,0.1,0,0.1,0,0.2c0.4,0,1,0.2,1.2,0c0.8-0.8,1.5-0.3,2.2,0.1
				c0.3,0.2,0.6,0.4,0.9,0.6c0,0.1,0,0.3,0,0.4c-1.6,0.3-3.2,0.6-4.8,0.9c0,0.1,0,0.2,0.1,0.3c0.2,0,0.4,0,0.6,0
				c-0.1,1.3-0.2,2.6-0.2,4c-0.1-0.2-0.2-0.3-0.3-0.4c-0.4,2.3-0.8,4.5-1.3,7c-0.3-0.3-0.5-0.4-0.7-0.6c-0.9,1.3-1.7,2.6-2.6,3.9
				c0-0.2-0.1-0.4-0.2-0.7c-1.1,1.1-2.1,2.2-3.2,3.4c0-0.3-0.1-0.5-0.1-0.7c-0.2,0.1-0.4,0.3-0.6,0.3c-3.5,1-4.5,3.8-5.1,6.9
				c-0.4,2,0.3,2.7,2.4,2.9c0.7,0.1,1.5-0.2,1.9,0.8c-1.1,0-2.2,0-3.4,0c0.5,0.7,1.1,1.3,1.6,2c-0.1,0.1-0.1,0.2-0.2,0.2
				c-1-0.5-1.9-1.2-3-1.4c-1.1-0.1-2.3,0.4-3.6,0.6c0.5,0.3,0.8,0.6,1.4,1c-1.4,0-2.5,0-3.6,0c-0.1,1.1,1.5,1.9,0.9,3.4
				C-122.9,268.8-123.7,267.7-124.5,266.5z M-116.3,255.4c-3.7,0.6-3.7,0.6-5.5,3.6c-0.1,0.2-0.2,0.3-0.3,0.5
				c-0.9,1.6-1.5,3.2-1.2,5.1c0.1,0.7,1.3,1.2,1.6,0.7c0.5-0.9,1.3-0.8,2.1-1c1.6-0.3,1.6-0.3,1.7-2c0-1,0-2.1,0.1-3.1
				C-117.6,257.9-117.8,256.4-116.3,255.4z M-127.3,249.9c2.8,2.2,8.4,2.6,10.4,0.6C-120.5,251.8-123.9,251.3-127.3,249.9z
				 M-114,240.5c-2.2,3-5.3,3.1-8.7,3.6C-120,244.9-113.9,242.8-114,240.5z M-118,245.9c-1.8,0.9-3.7,1-5.6,0.9
				c-1.9-0.1-3.8-0.4-5.9-0.6C-127,247.7-119.7,247.5-118,245.9z M-122.8,248.5c-3,1.6-6.2,0.1-9.3,0.3
				C-128.9,249.2-125.8,250.5-122.8,248.5z M-110.4,244.9c-1.2,2.2-3.6,2.8-5.6,3.8C-113.1,248.3-110.7,246.7-110.4,244.9z
				 M-108.6,243.7c-0.7,2.4-1.7,4.6-4.2,5.7C-110.5,249.1-108.3,246.1-108.6,243.7z M-115.9,245.1c2.3-0.6,4.8-3.1,4.5-4.7
				C-112.5,242.5-113.9,244.1-115.9,245.1z M-129.1,251c-1.9-0.4-3.7-0.8-5.6-1.2c0,0.1,0,0.2-0.1,0.3
				C-132.9,250.4-131.1,251.5-129.1,251z M-106.1,235.5c1.3,0.4,1.5-0.3,1.7-0.9c-1.1-1-1.1-1-2-0.4c0.4,0.3,0.7,0.5,1.1,0.8
				C-105.5,235.1-105.7,235.2-106.1,235.5z M-109.4,240.3c-0.1,1.9-1.2,3.3-2.7,4.4C-110.3,244.2-108.8,242-109.4,240.3z
				 M-125.8,245.4c0-0.1,0-0.2,0.1-0.3c-1.2-0.3-2.4-0.5-3.6-0.8c0,0.1,0,0.2-0.1,0.3C-128.2,244.8-127,245.1-125.8,245.4z
				 M-110.3,237.2c0.1,0.1,0.2,0.1,0.3,0.2c0.5-0.9,1-1.7,1.5-2.6c-0.1-0.1-0.2-0.1-0.3-0.2C-109.2,235.5-109.7,236.4-110.3,237.2z
				 M-134.6,244.6c0,0.1,0,0.2,0.1,0.3c0.9-0.2,1.8-0.4,2.7-0.6c0-0.1-0.1-0.2-0.1-0.4C-132.8,244.2-133.7,244.4-134.6,244.6z
				 M-104.7,243.3c0.9-1.1,1.1-2.3,0.6-3C-104.3,241.2-104.5,242.1-104.7,243.3z M-107.1,247.5c-0.1-0.1-0.3-0.3-0.4-0.4
				c-0.7,0.7-1.3,1.4-2,2.1c0.1,0.1,0.3,0.3,0.4,0.4C-108.5,248.9-107.8,248.2-107.1,247.5z"/>
		</g>
	</g>
	<g>
		<path class="st0" d="M-82.8,251.5c0-3.9,3.2-7.1,7.3-7.1c1.7,0,3.3,0.6,4.5,1.6c0.3,0.2,0.3,0.6,0.1,1c-0.2,0.3-0.6,0.3-1,0.1
			c-1-0.8-2.3-1.3-3.6-1.3c-3.3,0-5.9,2.6-5.9,5.7c0,3.2,2.6,5.7,5.9,5.7c1.4,0,2.6-0.5,3.6-1.2c0.3-0.2,0.7-0.1,1,0.1
			c0.3,0.3,0.2,0.8-0.1,1c-1.2,0.9-2.8,1.5-4.5,1.5C-79.6,258.6-82.8,255.5-82.8,251.5z"/>
		<path class="st0" d="M-65.3,245.1c0-0.4,0.3-0.7,0.7-0.7c0.3,0,0.7,0.3,0.7,0.7v3.1c0.1-0.1,0.1-0.2,0.2-0.3
			c1.1-1.7,3-3.5,5.7-3.5c0.4,0,0.7,0.3,0.7,0.7s-0.3,0.7-0.7,0.7c-1.9,0-3.1,1-4.1,2.3s-1.5,2.7-1.7,3.3c-0.1,0.1-0.1,0.2-0.1,0.2
			v6.2c0,0.4-0.3,0.7-0.7,0.7c-0.4,0-0.7-0.3-0.7-0.7V245.1z"/>
		<path class="st0" d="M-47.2,244.4c3.7,0,6.7,3.2,6.7,7.1s-3,7.1-6.7,7.1s-6.7-3.2-6.7-7.1S-51,244.4-47.2,244.4z M-47.2,257.2
			c2.9,0,5.3-2.5,5.3-5.7s-2.4-5.7-5.3-5.7s-5.3,2.6-5.3,5.7S-50.1,257.2-47.2,257.2z"/>
		<path class="st0" d="M-31.6,258.5c-0.1-0.1-0.2-0.2-0.3-0.3l-5.3-12.7c-0.1-0.3,0-0.8,0.3-0.9s0.8,0,0.9,0.4l4.7,11.2l3.3-7.8
			c0.1-0.3,0.4-0.4,0.7-0.4c0.3,0,0.6,0.2,0.7,0.4l3.3,7.8l4.7-11.2c0.1-0.3,0.6-0.5,0.9-0.4s0.5,0.6,0.4,0.9l-5.3,12.6
			c-0.1,0.1-0.1,0.3-0.3,0.3c-0.1,0.1-0.2,0.1-0.3,0.1h-0.1h-0.1c-0.2,0-0.5-0.2-0.5-0.4l0,0l-3.3-7.8l-3.3,7.8c0,0,0,0,0,0.1
			c-0.1,0.3-0.4,0.4-0.6,0.4c-0.1,0-0.2,0-0.3-0.1C-31.6,258.5-31.6,258.5-31.6,258.5z"/>
		<path class="st0" d="M-13.2,251.5c0-3.9,3.2-7.1,7.3-7.1c1.7,0,3.3,0.6,4.5,1.6c0.3,0.2,0.3,0.6,0.1,1c-0.2,0.3-0.6,0.3-1,0.1
			c-1-0.8-2.3-1.3-3.6-1.3c-3.3,0-5.9,2.6-5.9,5.7c0,3.2,2.6,5.7,5.9,5.7c1.4,0,2.6-0.5,3.6-1.2c0.3-0.2,0.7-0.1,1,0.1
			c0.3,0.3,0.2,0.8-0.1,1c-1.2,0.9-2.8,1.5-4.5,1.5C-9.9,258.6-13.2,255.5-13.2,251.5z"/>
		<path class="st0" d="M10,244.4c3.7,0,6.7,3.2,6.7,7.1s-3,7.1-6.7,7.1s-6.7-3.2-6.7-7.1S6.3,244.4,10,244.4z M10,257.2
			c2.9,0,5.3-2.5,5.3-5.7s-2.4-5.7-5.3-5.7c-2.9,0-5.3,2.6-5.3,5.7S7.1,257.2,10,257.2z"/>
		<path class="st0" d="M22,240.5c0-0.4,0.3-0.7,0.7-0.7s0.7,0.3,0.7,0.7v0.7c0,0.4-0.3,0.8-0.7,0.8s-0.7-0.3-0.7-0.8V240.5z
			 M22,245.1c0-0.4,0.3-0.7,0.7-0.7s0.7,0.3,0.7,0.7v12.8c0,0.4-0.3,0.7-0.7,0.7s-0.7-0.3-0.7-0.7V245.1z"/>
		<path class="st0" d="M40.3,250.2c0-2.4-1.9-4.4-4.4-4.4c-2.4,0-4.3,2-4.4,4.4v7.7v0.1c0,0.1-0.1,0.2-0.1,0.3
			c-0.1,0.2-0.3,0.3-0.5,0.3h-0.2c-0.2-0.1-0.4-0.2-0.5-0.4v-0.1V258v-0.2v-7.7V250v-4.8c0-0.4,0.3-0.7,0.7-0.7s0.7,0.3,0.7,0.7v1.4
			c1-1.2,2.6-2.1,4.4-2.1c3.2,0,5.8,2.6,5.8,5.8v7.7c0,0.4-0.3,0.7-0.7,0.7s-0.7-0.3-0.7-0.7v-7.8H40.3z"/>
	</g>
</g>
</svg>
