<?xml version="1.0" encoding="utf-8"?>
<!-- Generator: Adobe Illustrator 19.0.0, SVG Export Plug-In . SVG Version: 6.00 Build 0)  -->
<svg version="1.1" id="Layer_1" xmlns="http://www.w3.org/2000/svg" xmlns:xlink="http://www.w3.org/1999/xlink" x="0px" y="0px"
	 viewBox="-202 282 194 38" style="enable-background:new -202 282 194 38;" xml:space="preserve">
<style type="text/css">
	.st0{fill:#FFFFFF;}
</style>
<g>
	<g id="vrpprg.tif_20_">
		<g>
			<path class="st0" d="M-174.5,316.5c-1.3,0.5-2.4,1-3.6,1.5c-0.5,0.2-1.4-0.5-1.4,0.8c-0.5-0.8-0.1-1.7,0.8-1.8
				c1-0.1,1.7-0.6,2.5-1.1c0.4-0.3,0.9-0.3,1.5-0.5c-0.9-2.9,0.4-5.7,1.4-8.6c-0.1,0-0.2-0.1-0.3-0.1c-0.2,0.3-0.5,0.6-0.7,0.9
				c-2-1.2-3.9-2.4-5.8-3.6c-0.5-0.3-1-0.6-1.5-0.7c-2.5-0.9-5.1-2-7.7-2.6c-1.5-0.3-3.2,0.2-4.7,0.6c-1.2,0.3-2.2,1-3.3,1.3
				c-0.9,0.3-1.9,0.3-2.9,0.5c0-0.1-0.1-0.3-0.1-0.4c1.7-0.7,3.5-1.4,5.2-2.1c0-0.1-0.1-0.3-0.1-0.4c-2.2,0.7-4.4,1.4-6.5,2.1
				c0-0.1-0.1-0.2-0.1-0.3c1.5-0.6,2.9-1.2,4.4-1.8h0.1c1.1-1,2.5-0.6,3.8-0.6c0.5,0,1-0.2,1.5-0.4c-1.5-0.1-3-0.2-4.5-0.3
				c0-0.1,0-0.3,0-0.4c3.6-0.9,7.2-1.9,10.8-2.8c-0.8-0.2-1.6-0.4-2.3-0.6c0-0.1,0-0.3,0-0.4c4-0.7,7.7-2.8,12.1-3.1
				c-0.5-0.2-0.7-0.3-0.8-0.3c3.7-1.1,7.6-2.2,11.5-3.3c1.5-0.4,2.8-1.3,4-2.5c0.9-0.9,1.9-1.7,3-2.5c1.7-1.2,3.5-1.1,5.3-0.3
				c0.7,0.4,1.3,0.9,2.1,1.6c-0.5,0.2-1,0.4-1.4,0.6c0,0.1,0,0.1,0,0.2c0.4,0,1,0.2,1.2,0c0.8-0.8,1.5-0.3,2.2,0.1
				c0.3,0.2,0.6,0.4,0.9,0.6c0,0.1,0,0.3,0,0.4c-1.6,0.3-3.2,0.6-4.8,0.9c0,0.1,0,0.2,0.1,0.3c0.2,0,0.4,0,0.6,0
				c-0.1,1.3-0.2,2.6-0.2,4c-0.1-0.2-0.2-0.3-0.3-0.4c-0.4,2.3-0.8,4.5-1.3,7c-0.3-0.3-0.5-0.4-0.7-0.6c-0.9,1.3-1.7,2.6-2.6,3.9
				c0-0.2-0.1-0.4-0.2-0.7c-1.1,1.1-2.1,2.2-3.2,3.4c0-0.3-0.1-0.5-0.1-0.7c-0.2,0.1-0.4,0.3-0.6,0.3c-3.5,1-4.5,3.8-5.1,6.9
				c-0.4,2,0.3,2.7,2.4,2.9c0.7,0.1,1.5-0.2,1.9,0.8c-1.1,0-2.2,0-3.4,0c0.5,0.7,1.1,1.3,1.6,2c-0.1,0.1-0.1,0.2-0.2,0.2
				c-1-0.5-1.9-1.2-3-1.4c-1.1-0.1-2.3,0.4-3.6,0.6c0.5,0.3,0.8,0.6,1.4,1c-1.4,0-2.5,0-3.6,0c-0.1,1.1,1.5,1.9,0.9,3.4
				C-172.9,318.8-173.7,317.7-174.5,316.5z M-166.3,305.4c-3.7,0.6-3.7,0.6-5.5,3.6c-0.1,0.2-0.2,0.3-0.3,0.5
				c-0.9,1.6-1.5,3.2-1.2,5.1c0.1,0.7,1.3,1.2,1.6,0.7c0.5-0.9,1.3-0.8,2.1-1c1.6-0.3,1.6-0.3,1.7-2c0-1,0-2.1,0.1-3.1
				C-167.6,307.9-167.8,306.4-166.3,305.4z M-177.3,299.9c2.8,2.2,8.4,2.6,10.4,0.6C-170.5,301.8-173.9,301.3-177.3,299.9z
				 M-164,290.5c-2.2,3-5.3,3.1-8.7,3.6C-170,294.9-163.9,292.8-164,290.5z M-168,295.9c-1.8,0.9-3.7,1-5.6,0.9
				c-1.9-0.1-3.8-0.4-5.9-0.6C-177,297.7-169.7,297.5-168,295.9z M-172.8,298.5c-3,1.6-6.2,0.1-9.3,0.3
				C-178.9,299.2-175.8,300.5-172.8,298.5z M-160.4,294.9c-1.2,2.2-3.6,2.8-5.6,3.8C-163.1,298.3-160.7,296.7-160.4,294.9z
				 M-158.6,293.7c-0.7,2.4-1.7,4.6-4.2,5.7C-160.5,299.1-158.3,296.1-158.6,293.7z M-165.9,295.1c2.3-0.6,4.8-3.1,4.5-4.7
				C-162.5,292.5-163.9,294.1-165.9,295.1z M-179.1,301c-1.9-0.4-3.7-0.8-5.6-1.2c0,0.1,0,0.2-0.1,0.3
				C-182.9,300.4-181.1,301.5-179.1,301z M-156.1,285.5c1.3,0.4,1.5-0.3,1.7-0.9c-1.1-1-1.1-1-2-0.4c0.4,0.3,0.7,0.5,1.1,0.8
				C-155.5,285.1-155.7,285.2-156.1,285.5z M-159.4,290.3c-0.1,1.9-1.2,3.3-2.7,4.4C-160.3,294.2-158.8,292-159.4,290.3z
				 M-175.8,295.4c0-0.1,0-0.2,0.1-0.3c-1.2-0.3-2.4-0.5-3.6-0.8c0,0.1,0,0.2-0.1,0.3C-178.2,294.8-177,295.1-175.8,295.4z
				 M-160.3,287.2c0.1,0.1,0.2,0.1,0.3,0.2c0.5-0.9,1-1.7,1.5-2.6c-0.1-0.1-0.2-0.1-0.3-0.2C-159.2,285.5-159.7,286.4-160.3,287.2z
				 M-184.6,294.6c0,0.1,0,0.2,0.1,0.3c0.9-0.2,1.8-0.4,2.7-0.6c0-0.1-0.1-0.2-0.1-0.4C-182.8,294.2-183.7,294.4-184.6,294.6z
				 M-154.7,293.3c0.9-1.1,1.1-2.3,0.6-3C-154.3,291.2-154.5,292.1-154.7,293.3z M-157.1,297.5c-0.1-0.1-0.3-0.3-0.4-0.4
				c-0.7,0.7-1.3,1.4-2,2.1c0.1,0.1,0.3,0.3,0.4,0.4C-158.5,298.9-157.8,298.2-157.1,297.5z"/>
		</g>
	</g>
	<g>
		<path class="st0" d="M-132.8,301.5c0-3.9,3.2-7.1,7.3-7.1c1.7,0,3.3,0.6,4.5,1.6c0.3,0.2,0.3,0.6,0.1,1c-0.2,0.3-0.6,0.3-1,0.1
			c-1-0.8-2.3-1.3-3.6-1.3c-3.3,0-5.9,2.6-5.9,5.7c0,3.2,2.6,5.7,5.9,5.7c1.4,0,2.6-0.5,3.6-1.2c0.3-0.2,0.7-0.1,1,0.1
			c0.3,0.3,0.2,0.8-0.1,1c-1.2,0.9-2.8,1.5-4.5,1.5C-129.6,308.6-132.8,305.5-132.8,301.5z"/>
		<path class="st0" d="M-115.3,295.1c0-0.4,0.3-0.7,0.7-0.7c0.3,0,0.7,0.3,0.7,0.7v3.1c0.1-0.1,0.1-0.2,0.2-0.3
			c1.1-1.7,3-3.5,5.7-3.5c0.4,0,0.7,0.3,0.7,0.7s-0.3,0.7-0.7,0.7c-1.9,0-3.1,1-4.1,2.3s-1.5,2.7-1.7,3.3c-0.1,0.1-0.1,0.2-0.1,0.2
			v6.2c0,0.4-0.3,0.7-0.7,0.7c-0.4,0-0.7-0.3-0.7-0.7V295.1z"/>
		<path class="st0" d="M-97.2,294.4c3.7,0,6.7,3.2,6.7,7.1s-3,7.1-6.7,7.1s-6.7-3.2-6.7-7.1S-101,294.4-97.2,294.4z M-97.2,307.2
			c2.9,0,5.3-2.5,5.3-5.7s-2.4-5.7-5.3-5.7s-5.3,2.6-5.3,5.7S-100.1,307.2-97.2,307.2z"/>
		<path class="st0" d="M-81.6,308.5c-0.1-0.1-0.2-0.2-0.3-0.3l-5.3-12.7c-0.1-0.3,0-0.8,0.3-0.9s0.8,0,0.9,0.4l4.7,11.2l3.3-7.8
			c0.1-0.3,0.4-0.4,0.7-0.4c0.3,0,0.6,0.2,0.7,0.4l3.3,7.8l4.7-11.2c0.1-0.3,0.6-0.5,0.9-0.4s0.5,0.6,0.4,0.9l-5.3,12.6
			c-0.1,0.1-0.1,0.3-0.3,0.3c-0.1,0.1-0.2,0.1-0.3,0.1h-0.1h-0.1c-0.2,0-0.5-0.2-0.5-0.4l0,0l-3.3-7.8l-3.3,7.8c0,0,0,0,0,0.1
			c-0.1,0.3-0.4,0.4-0.6,0.4c-0.1,0-0.2,0-0.3-0.1C-81.6,308.5-81.6,308.5-81.6,308.5z"/>
		<path class="st0" d="M-63.2,301.5c0-3.9,3.2-7.1,7.3-7.1c1.7,0,3.3,0.6,4.5,1.6c0.3,0.2,0.3,0.6,0.1,1c-0.2,0.3-0.6,0.3-1,0.1
			c-1-0.8-2.3-1.3-3.6-1.3c-3.3,0-5.9,2.6-5.9,5.7c0,3.2,2.6,5.7,5.9,5.7c1.4,0,2.6-0.5,3.6-1.2c0.3-0.2,0.7-0.1,1,0.1
			c0.3,0.3,0.2,0.8-0.1,1c-1.2,0.9-2.8,1.5-4.5,1.5C-59.9,308.6-63.2,305.5-63.2,301.5z"/>
		<path class="st0" d="M-40,294.4c3.7,0,6.7,3.2,6.7,7.1s-3,7.1-6.7,7.1s-6.7-3.2-6.7-7.1S-43.7,294.4-40,294.4z M-40,307.2
			c2.9,0,5.3-2.5,5.3-5.7s-2.4-5.7-5.3-5.7c-2.9,0-5.3,2.6-5.3,5.7S-42.9,307.2-40,307.2z"/>
		<path class="st0" d="M-28,290.5c0-0.4,0.3-0.7,0.7-0.7s0.7,0.3,0.7,0.7v0.7c0,0.4-0.3,0.8-0.7,0.8s-0.7-0.3-0.7-0.8V290.5z
			 M-28,295.1c0-0.4,0.3-0.7,0.7-0.7s0.7,0.3,0.7,0.7v12.8c0,0.4-0.3,0.7-0.7,0.7s-0.7-0.3-0.7-0.7V295.1z"/>
		<path class="st0" d="M-9.7,300.2c0-2.4-1.9-4.4-4.4-4.4c-2.4,0-4.3,2-4.4,4.4v7.7v0.1c0,0.1-0.1,0.2-0.1,0.3
			c-0.1,0.2-0.3,0.3-0.5,0.3h-0.2c-0.2-0.1-0.4-0.2-0.5-0.4v-0.1V308v-0.2v-7.7V300v-4.8c0-0.4,0.3-0.7,0.7-0.7s0.7,0.3,0.7,0.7v1.4
			c1-1.2,2.6-2.1,4.4-2.1c3.2,0,5.8,2.6,5.8,5.8v7.7c0,0.4-0.3,0.7-0.7,0.7s-0.7-0.3-0.7-0.7v-7.8H-9.7z"/>
	</g>
</g>
</svg>
