<?xml version="1.0" encoding="utf-8"?>
<!-- Generator: Adobe Illustrator 19.0.0, SVG Export Plug-In . SVG Version: 6.00 Build 0)  -->
<svg version="1.1" id="Layer_1" xmlns="http://www.w3.org/2000/svg" xmlns:xlink="http://www.w3.org/1999/xlink" x="0px" y="0px"
	 viewBox="0 0 600 600" style="enable-background:new 0 0 600 600;" xml:space="preserve">
<style type="text/css">
	.st0{fill:#1C2F4E;}
	.st1{fill:#FFFFFF;stroke:#000000;stroke-miterlimit:10;}
</style>
<circle id="XMLID_18_" class="st0" cx="300" cy="300" r="300"/>
<g id="vrpprg.tif_20_">
	<g id="XMLID_19_">
		<path id="XMLID_20_" class="st1" d="M286.5,423.2c-9.2,3.5-17,7.1-25.4,10.6c-3.5,1.4-9.9-3.5-9.9,5.7c-3.5-5.7-0.7-12,5.7-12.7
			c7.1-0.7,12-4.2,17.7-7.8c2.8-2.1,6.4-2.1,10.6-3.5c-6.4-20.5,2.8-40.3,9.9-60.8c-0.7,0-1.4-0.7-2.1-0.7c-1.4,2.1-3.5,4.2-4.9,6.4
			c-14.1-8.5-27.6-17-41-25.4c-3.5-2.1-7.1-4.2-10.6-4.9c-17.7-6.4-36-14.1-54.4-18.4c-10.6-2.1-22.6,1.4-33.2,4.2
			c-8.5,2.1-15.6,7.1-23.3,9.2c-6.4,2.1-13.4,2.1-20.5,3.5c0-0.7-0.7-2.1-0.7-2.8c12-4.9,24.7-9.9,36.8-14.8c0-0.7-0.7-2.1-0.7-2.8
			c-15.6,4.9-31.1,9.9-45.9,14.8c0-0.7-0.7-1.4-0.7-2.1c10.6-4.2,20.5-8.5,31.1-12.7h0.7c7.8-7.1,17.7-4.2,26.9-4.2
			c3.5,0,7.1-1.4,10.6-2.8c-10.6-0.7-21.2-1.4-31.8-2.1c0-0.7,0-2.1,0-2.8c25.4-6.4,50.9-13.4,76.3-19.8c-5.7-1.4-11.3-2.8-16.3-4.2
			c0-0.7,0-2.1,0-2.8c28.3-4.9,54.4-19.8,85.5-21.9c-3.5-1.4-4.9-2.1-5.7-2.1c26.2-7.8,53.7-15.6,81.3-23.3
			c10.6-2.8,19.8-9.2,28.3-17.7c6.4-6.4,13.4-12,21.2-17.7c12-8.5,24.7-7.8,37.5-2.1c4.9,2.8,9.2,6.4,14.8,11.3
			c-3.5,1.4-7.1,2.8-9.9,4.2c0,0.7,0,0.7,0,1.4c2.8,0,7.1,1.4,8.5,0c5.7-5.7,10.6-2.1,15.6,0.7c2.1,1.4,4.2,2.8,6.4,4.2
			c0,0.7,0,2.1,0,2.8c-11.3,2.1-22.6,4.2-33.9,6.4c0,0.7,0,1.4,0.7,2.1c1.4,0,2.8,0,4.2,0c-0.7,9.2-1.4,18.4-1.4,28.3
			c-0.7-1.4-1.4-2.1-2.1-2.8c-2.8,16.3-5.7,31.8-9.2,49.5c-2.1-2.1-3.5-2.8-4.9-4.2c-6.4,9.2-12,18.4-18.4,27.6
			c0-1.4-0.7-2.8-1.4-4.9c-7.8,7.8-14.8,15.6-22.6,24c0-2.1-0.7-3.5-0.7-4.9c-1.4,0.7-2.8,2.1-4.2,2.1c-24.7,7.1-31.8,26.9-36,48.8
			c-2.8,14.1,2.1,19.1,17,20.5c4.9,0.7,10.6-1.4,13.4,5.7c-7.8,0-15.6,0-24,0c3.5,4.9,7.8,9.2,11.3,14.1c-0.7,0.7-0.7,1.4-1.4,1.4
			c-7.1-3.5-13.4-8.5-21.2-9.9c-7.8-0.7-16.3,2.8-25.4,4.2c3.5,2.1,5.7,4.2,9.9,7.1c-9.9,0-17.7,0-25.4,0c-0.7,7.8,10.6,13.4,6.4,24
			C297.8,439.5,292.1,431.7,286.5,423.2z M344.4,344.8c-26.2,4.2-26.2,4.2-38.9,25.4c-0.7,1.4-1.4,2.1-2.1,3.5
			c-6.4,11.3-10.6,22.6-8.5,36c0.7,4.9,9.2,8.5,11.3,4.9c3.5-6.4,9.2-5.7,14.8-7.1c11.3-2.1,11.3-2.1,12-14.1c0-7.1,0-14.8,0.7-21.9
			C335.2,362.4,333.8,351.8,344.4,344.8z M266.7,305.9c19.8,15.6,59.4,18.4,73.5,4.2C314.7,319.3,290.7,315.8,266.7,305.9z
			 M360.7,239.4c-15.6,21.2-37.5,21.9-61.5,25.4C318.3,270.5,361.4,255.7,360.7,239.4z M332.4,277.6c-12.7,6.4-26.2,7.1-39.6,6.4
			s-26.9-2.8-41.7-4.2C268.8,290.3,320.4,288.9,332.4,277.6z M298.5,296c-21.2,11.3-43.8,0.7-65.7,2.1
			C255.4,300.9,277.3,310.1,298.5,296z M386.1,270.5c-8.5,15.6-25.4,19.8-39.6,26.9C367.1,294.6,384,283.3,386.1,270.5z
			 M398.9,262.1c-4.9,17-12,32.5-29.7,40.3C385.4,300.2,401,279,398.9,262.1z M347.3,272c16.3-4.2,33.9-21.9,31.8-33.2
			C371.3,253.6,361.4,264.9,347.3,272z M254,313.7c-13.4-2.8-26.2-5.7-39.6-8.5c0,0.7,0,1.4-0.7,2.1
			C227.1,309.4,239.8,317.2,254,313.7z M416.5,204.1c9.2,2.8,10.6-2.1,12-6.4c-7.8-7.1-7.8-7.1-14.1-2.8c2.8,2.1,4.9,3.5,7.8,5.7
			C420.8,201.3,419.4,202,416.5,204.1z M393.2,238c-0.7,13.4-8.5,23.3-19.1,31.1C386.8,265.6,397.4,250,393.2,238z M277.3,274.1
			c0-0.7,0-1.4,0.7-2.1c-8.5-2.1-17-3.5-25.4-5.7c0,0.7,0,1.4-0.7,2.1C260.3,269.8,268.8,272,277.3,274.1z M386.8,216.1
			c0.7,0.7,1.4,0.7,2.1,1.4c3.5-6.4,7.1-12,10.6-18.4c-0.7-0.7-1.4-0.7-2.1-1.4C394.6,204.1,391.1,210.5,386.8,216.1z M215.1,268.4
			c0,0.7,0,1.4,0.7,2.1c6.4-1.4,12.7-2.8,19.1-4.2c0-0.7-0.7-1.4-0.7-2.8C227.8,265.6,221.4,267,215.1,268.4z M426.4,259.2
			c6.4-7.8,7.8-16.3,4.2-21.2C429.3,244.4,427.8,250.7,426.4,259.2z M409.5,288.9c-0.7-0.7-2.1-2.1-2.8-2.8
			c-4.9,4.9-9.2,9.9-14.1,14.8c0.7,0.7,2.1,2.1,2.8,2.8C399.6,298.8,404.5,293.9,409.5,288.9z"/>
	</g>
</g>
</svg>
