<?xml version="1.0" encoding="utf-8"?>
<!-- Generator: Adobe Illustrator 19.0.0, SVG Export Plug-In . SVG Version: 6.00 Build 0)  -->
<svg version="1.1" id="Layer_1" xmlns="http://www.w3.org/2000/svg" xmlns:xlink="http://www.w3.org/1999/xlink" x="0px" y="0px"
	 viewBox="0 0 226.8 500" style="enable-background:new 0 0 226.8 500;" xml:space="preserve">
<style type="text/css">
	.st0{fill:#1C304E;}
</style>
<g>
	<polygon id="XMLID_2_" class="st0" points="20,20 216.8,20 216.8,0 0,0 0,10 0,20 0,480 0,486.7 0,500 216.8,500 216.8,480 20,480 
			"/>
	<path id="XMLID_1_" class="st0" d="M145.1,330c27.2-27.2,54.5-54.5,81.7-81.7c-27.2-27.2-54.5-54.5-81.7-81.7
		c-4.1,4.1-8.2,8.3-12.6,12.6c20,20,40.1,40.1,60.2,60.2c-59.5,0-68.4,0-127.9,0c0,5.9,0,11.9,0,17.8c59.6,0,68.5,0,128.3,0
		c-20.3,20.3-40.4,40.4-60.4,60.4C136.9,321.8,141,326,145.1,330z"/>
</g>
</svg>
