<?xml version="1.0" encoding="utf-8"?>
<!-- Generator: Adobe Illustrator 19.0.0, SVG Export Plug-In . SVG Version: 6.00 Build 0)  -->
<svg version="1.1" id="Layer_1" xmlns="http://www.w3.org/2000/svg" xmlns:xlink="http://www.w3.org/1999/xlink" x="0px" y="0px"
	 viewBox="0 0 500 500" style="enable-background:new 0 0 500 500;" xml:space="preserve">
<style type="text/css">
	.st0{fill:none;}
	.st1{fill:#1C304E;}
</style>
<g>
	<path class="st0" d="M250.1,20.5c-126.5,0-229.3,102.9-229.3,229.3s102.9,229.3,229.3,229.3c126.4,0,229.3-102.9,229.3-229.3
		S376.6,20.5,250.1,20.5z M318,432.7c-39.2-53.6-78.3-113.4-118.5-163.3c11.2,0,20.8,0,32.2,0c-11.8-33.3-22.9-66.6-34.6-83.3
		c8.8,0,16.5,0,26,0c-14.6-50-28.4-79.7-42.2-117.7c0.5-0.3,1,2.3,1.5,2c39,53.7,78.1,99.1,118.3,165.7c-11.3,0-21.1,0-32.4,0
		c12.1,16.7,23.5,50,35.5,83.3c-9,0-16.4,0-25.8,0c14.2,33.3,27.8,76,41.5,113.9C318.9,433.6,318.5,432.4,318,432.7z"/>
	<path id="XMLID_3_" class="st1" d="M303.7,319.3c-12-33.3-23.4-66.6-35.5-83.3c11.3,0,21.1,0,32.4,0
		c-40.2-66.6-79.2-112.8-118.3-166.5c-0.5,0.3-1,0.4-1.5,0.7c13.8,38,27.7,65.9,42.2,115.9c-9.5,0-17.2,0-26,0
		c11.7,16.7,22.8,50,34.6,83.3c-11.5,0-21.1,0-32.2,0c40.2,50,79.4,109.8,118.5,163.3c0.5-0.3,0.9,0.8,1.4,0.6
		c-13.6-37.9-27.3-80.6-41.5-113.9C287.3,319.3,294.8,319.3,303.7,319.3z"/>
	<path class="st1" d="M250.1,0C112.3,0,0.3,112.1,0.3,249.9s112.1,249.9,249.9,249.9c137.8,0,249.9-112.1,249.9-249.9
		S387.9,0,250.1,0z M250.1,479.2c-126.5,0-229.3-102.9-229.3-229.3S123.7,20.5,250.1,20.5c126.4,0,229.3,102.9,229.3,229.3
		S376.6,479.2,250.1,479.2z"/>
</g>
</svg>
