<?xml version="1.0" encoding="utf-8"?>
<!-- Generator: Adobe Illustrator 19.0.0, SVG Export Plug-In . SVG Version: 6.00 Build 0)  -->
<svg version="1.1" id="Layer_1" xmlns="http://www.w3.org/2000/svg" xmlns:xlink="http://www.w3.org/1999/xlink" x="0px" y="0px"
	 viewBox="0 0 500 500" style="enable-background:new 0 0 500 500;" xml:space="preserve">
<style type="text/css">
	.st0{fill:#1C2F4E;}
</style>
<path id="XMLID_22_" class="st0" d="M249.7,0C111.8,0-0.3,112.1-0.3,250s112.1,250,250,250c137.9,0,250-112.1,250-250
	S387.5,0,249.7,0z M249.7,470.6c-121.6,0-220.6-98.9-220.6-220.6s99-220.6,220.6-220.6s220.6,99,220.6,220.6
	S371.3,470.6,249.7,470.6z"/>
<path id="XMLID_18_" class="st0" d="M355.4,164.8h-21.5l-141.2-26c-14.5-2.8-28.3,7.1-31.2,21.1l-0.1,4.9h-15.9
	c-16.8,0-41.3,11.8-41.3,28.6V328c0,16.8,24.4,33.6,41.3,33.6h209.9c16.8,0,27.6-16.7,27.6-33.6V193.4
	C383,176.6,372.2,164.8,355.4,164.8z M350.2,327c0,1-0.8,1.7-1.8,1.7H138.8c-1,0-1.8-0.8-1.8-1.7V199.3c0-1,0.8-1.7,1.8-1.7h209.6
	c1,0,1.8,0.8,1.8,1.7V327z M169.8,162.3c0-2.6,9-4.4,11.7-4.4c0.4,0,3.8,1,4.5,1.1l30,5.7h-46.2V162.3z"/>
<path id="XMLID_15_" class="st0" d="M176.5,291.5c14.1,0,25.6-11.5,25.6-25.6c0-14.1-11.5-25.6-25.6-25.6
	c-14.1,0-25.6,11.5-25.6,25.6C150.9,280,162.4,291.5,176.5,291.5z M176.5,256.7c5.1,0,9.2,4.1,9.2,9.2c0,5.1-4.1,9.2-9.2,9.2
	c-5.1,0-9.2-4.1-9.2-9.2C167.3,260.8,171.5,256.7,176.5,256.7z"/>
</svg>
