<?xml version="1.0" encoding="utf-8"?>
<!-- Generator: Adobe Illustrator 19.0.0, SVG Export Plug-In . SVG Version: 6.00 Build 0)  -->
<svg version="1.1" id="Layer_1" xmlns="http://www.w3.org/2000/svg" xmlns:xlink="http://www.w3.org/1999/xlink" x="0px" y="0px"
	 viewBox="0 0 500 280" style="enable-background:new 0 0 500 280;" xml:space="preserve">
<style type="text/css">
	.st0{fill:#FFFFFF;}
</style>
<g>
	<path class="st0" d="M250,0C86,0,0,120.8,0,140c0,19.2,86,140,250,140c164,0,250-120.8,250-140C500,120.8,414,0,250,0z M250,247.7
		c-61.4,0-111.1-48.2-111.1-107.7c0-59.5,49.7-107.7,111.1-107.7S361.1,80.5,361.1,140C361.1,199.5,311.4,247.7,250,247.7z M250,140
		c-11.2,10.2-53.8-16.6-53.8,0c0,30.7,24.1,55.6,53.8,55.6c29.7,0,53.8-24.9,53.8-55.6c0-30.6-24.1-55.6-53.8-55.6
		C236.3,84.4,259.5,131.3,250,140z"/>
</g>
</svg>
