<?xml version="1.0" encoding="utf-8"?>
<!-- Generator: Adobe Illustrator 19.0.0, SVG Export Plug-In . SVG Version: 6.00 Build 0)  -->
<svg version="1.1" id="Layer_1" xmlns="http://www.w3.org/2000/svg" xmlns:xlink="http://www.w3.org/1999/xlink" x="0px" y="0px"
	 viewBox="0 0 500 500" style="enable-background:new 0 0 500 500;" xml:space="preserve">
<style type="text/css">
	.st0{fill:#1C304E;}
</style>
<g>
	<path class="st0" d="M249.7,0C111.8,0-0.3,112.1-0.3,250s112.1,250,250,250c137.9,0,250-112.1,250-250S387.5,0,249.7,0z
		 M249.7,470.6c-121.6,0-220.6-98.9-220.6-220.6s99-220.6,220.6-220.6s220.6,99,220.6,220.6S371.3,470.6,249.7,470.6z"/>
	<path class="st0" d="M339.3,129.6c-6.2-4.3-15.1-4.6-21.4-0.8L115.7,245.5c-6.8,3.9-10.4,10.6-10,18.8c0.6,8.1,5.3,14.4,12.5,17.2
		l54.3,22.3l13.8-14.8l-16.5,13v46.5c0,4.1,8,8.1,10.4,11.4c2.3,3.4,9,5.9,12.3,7.2c2.3,1,6.5,1.5,9.3,1.5c6.3,0,12.7-2.7,16.3-7.3
		l24.1-28.8l47,19.1c5.8,2.3,12.2,1.9,17.6-1.2c5.3-3.2,8.8-8.1,9.8-14l31.2-186.9C348.9,141.5,345.9,134.4,339.3,129.6z
		 M293.3,326.5l-60.9-23.8l-29.8,33V310l101-132.6l-135.8,98.3l-32.5-13.6l186.3-107.2L293.3,326.5z"/>
</g>
</svg>
