<?xml version="1.0" encoding="utf-8"?>
<!-- Generator: Adobe Illustrator 19.0.0, SVG Export Plug-In . SVG Version: 6.00 Build 0)  -->
<svg version="1.1" id="Layer_1" xmlns="http://www.w3.org/2000/svg" xmlns:xlink="http://www.w3.org/1999/xlink" x="0px" y="0px"
	 viewBox="0 0 500 500" style="enable-background:new 0 0 500 500;" xml:space="preserve">
<style type="text/css">
	.st0{fill:#1C2F4E;}
</style>
<g>
	<g>
		<path class="st0" d="M250.1,499.8C112.3,499.8,0.2,387.7,0.2,249.9S112.3,0,250.1,0C387.9,0,500,112.1,500,249.9
			S387.9,499.8,250.1,499.8z M250.1,29.4c-121.6,0-220.5,98.9-220.5,220.5s99,220.5,220.5,220.5s220.5-98.9,220.5-220.5
			S371.7,29.4,250.1,29.4z"/>
	</g>
</g>
<g>
	<g>
		<path class="st0" d="M265.2,402.9h-30c-16.5,0-33.2-11.4-33.2-33.1v-3.6l-2.7,2.7c-6.3,6.4-14.5,10-22.9,10
			c-13.2,0-22.1-8.2-23.8-9.8l-21.3-21.3c-11.2-11.7-14.9-32,0-46.9l2.6-2.6h-3.7c-21,0-32.8-16.9-33.2-32.7v-30.3
			c0.4-16.2,12.2-33.2,33.2-33.2h3.7l-2.6-2.6c-14.8-14.9-11.2-35.1-0.3-46.6l21.5-21.5c2.8-2.6,11.6-9.9,23.9-9.9
			c8.4,0,16.6,3.5,22.9,9.9l2.6,2.6v-3.7c0-21.1,16.9-32.8,32.8-33.2h30.4c16.2,0.4,33.1,12.2,33.1,33.2v3.7l2.5-2.5
			c6.6-6.6,14.6-10,23.1-10c13.1,0,22.2,8.4,23.9,10.1l21.2,21.2c2.4,2.4,10,11.1,10.1,23.5c0.1,8.5-3.5,16.8-10.1,23.3l-2.5,2.5
			h3.5c21.4,0,33.1,17,33.2,33.1v30c0,2-0.1,14.2-9.5,23.8c-4.2,4.3-11.8,9.4-23.7,9.4h-3.5l2.5,2.4c15.2,15.2,11.3,35.5,0,46.9
			l-21.2,21.2c-3.2,3.1-11.7,10.1-23.7,10.1c-8.4,0-16.7-3.6-23.2-10.2c-0.5-0.4-1.3-1.3-2.5-2.4v3.6
			C298.3,391.3,281.3,402.9,265.2,402.9z M198.9,334.6l7.9,3.8c3.7,1.8,7.6,3.4,11.6,4.8l8.3,2.8v23.7c0,7.4,5.4,8.5,8.6,8.5h30
			c1.4,0,8.5-0.4,8.5-8.5V346l8.4-2.8c4-1.3,7.9-2.9,11.5-4.8l7.9-3.9l6.2,6.3c5.3,5.3,8.9,8.9,10.3,10.3c5.1,5.2,10.4,2,12.3,0.1
			l21.1-21.1c1-1,5.7-6.4,0-12.2l-16.7-16.7l3.9-7.9c1.8-3.7,3.4-7.5,4.7-11.4l2.8-8.4h23.8c2.7,0,4.8-0.7,6.2-2
			c2.3-2.3,2.4-6.3,2.4-6.3v-30.1c0-1.4-0.5-8.6-8.6-8.6H346l-2.8-8.4c-1.3-3.9-2.9-7.7-4.7-11.3l-3.9-7.9l16.8-16.8c2-2,3-4,3-5.8
			c0-2.7-1.9-5.3-2.9-6.4l-21.1-21.1c0,0-6.8-5.3-12.1,0l-16.8,16.9l-7.9-3.9c-3.6-1.8-7.5-3.3-11.4-4.7l-8.3-2.9v-24
			c0-7.9-7.4-8.5-8.8-8.6h-29.8c-0.6,0-8.5,0.4-8.5,8.6v24.1l-8.3,2.9c-4,1.4-7.8,3-11.5,4.7l-7.8,3.7l-17-16.9
			c-5.1-5.1-12.4,0.3-12.4,0.3l-20.9,21c-0.8,0.8-5.5,6.4,0.1,12.1l16.9,17l-3.8,7.9c-1.8,3.7-3.4,7.5-4.7,11.4l-2.8,8.3h-24
			c-7.9,0-8.5,7.4-8.6,8.9v29.7c0,1.2,0.6,8.4,8.6,8.4h24l2.8,8.3c1.4,4,2.9,7.8,4.7,11.5l3.8,7.9l-16.8,16.8
			c-5.7,5.7-0.8,11.3,0.2,12.3l21.1,21.1c0,0,0,0,0,0c0,0,7,5,11.9,0L198.9,334.6z M250.1,306.3c-31.1,0-56.3-25.3-56.3-56.3
			c0-31,25.3-56.3,56.3-56.3c31,0,56.3,25.3,56.3,56.3C306.4,281,281.1,306.3,250.1,306.3z M250.1,218.2
			c-17.5,0-31.7,14.2-31.7,31.7c0,17.5,14.2,31.8,31.7,31.8c17.5,0,31.7-14.2,31.7-31.8C281.8,232.4,267.6,218.2,250.1,218.2z"/>
	</g>
</g>
</svg>
