<?xml version="1.0" encoding="utf-8"?>
<!-- Generator: Adobe Illustrator 19.0.0, SVG Export Plug-In . SVG Version: 6.00 Build 0)  -->
<svg version="1.1" id="Layer_1" xmlns="http://www.w3.org/2000/svg" xmlns:xlink="http://www.w3.org/1999/xlink" x="0px" y="0px"
	 viewBox="0 0 418.3 500" style="enable-background:new 0 0 418.3 500;" xml:space="preserve">
<style type="text/css">
	.st0{fill:#FFFFFF;}
</style>
<g id="XMLID_2_">
	<rect id="XMLID_40_" x="365.1" class="st0" width="17.1" height="13.2"/>
	<path id="XMLID_21_" class="st0" d="M259.3,13.2h17.1c0.2-2.1,0.6-4.1,0.6-6.3c0-2.4-0.5-4.6-0.7-6.9h-17.1
		c0.3,2.3,0.7,4.5,0.7,6.9C260,9,259.6,11.1,259.3,13.2z"/>
	<path id="XMLID_12_" class="st0" d="M221.7,450.5c0-86.2,0-99.2,0-185.6c-8.6,0-17.2,0-25.8,0c0,86.4,0,99.4,0,186.1
		c-29.4-29.4-58.5-58.5-87.6-87.6c-6.1,6.1-12.2,12.2-18,18.1c39.5,39.5,79.1,79.1,118.6,118.6c39.5-39.5,79.1-79.1,118.5-118.5
		c-5.9-5.9-12-12-18.3-18.3C279.9,392.2,250.8,421.4,221.7,450.5z"/>
	<rect id="XMLID_11_" class="st0" width="35.3" height="13.2"/>
	<rect id="XMLID_10_" x="382.2" class="st0" width="35.3" height="13.2"/>
	<path id="XMLID_9_" class="st0" d="M159.7,13.2h99.7c0.3-2.1,0.6-4.1,0.6-6.3c0-2.4-0.4-4.6-0.7-6.9h-99.6
		c-0.3,2.3-0.7,4.5-0.7,6.9C159,9,159.4,11.1,159.7,13.2z"/>
	<path id="XMLID_8_" class="st0" d="M276.4,13.2h88.7V0h-88.8c0.2,2.3,0.7,4.5,0.7,6.9C277,9,276.6,11.1,276.4,13.2z"/>
	<path id="XMLID_7_" class="st0" d="M142.6,13.2c-0.2-2.1-0.6-4.1-0.6-6.3c0-2.4,0.5-4.6,0.7-6.9H52.3v13.2H142.6z"/>
	<path id="XMLID_6_" class="st0" d="M365.1,176.3c0,18.8-15.3,34.1-34.1,34.1H86.5c-18.8,0-34.1-15.3-34.1-34.1V13.2H35.3v163.1
		c0,28.2,23,51.2,51.2,51.2H331c28.2,0,51.2-23,51.2-51.2V13.2h-17.1V176.3z"/>
	<rect id="XMLID_5_" x="35.3" class="st0" width="17.1" height="13.2"/>
	<path id="XMLID_4_" class="st0" d="M209.5,74.4c35.1,0,63.7-27,66.9-61.3h-17.1c-3.1,24.9-24.2,44.2-49.8,44.2S162.8,38,159.7,13.2
		h-17.1C145.8,47.4,174.4,74.4,209.5,74.4z"/>
	<path id="XMLID_3_" class="st0" d="M142.6,13.2h17.1c-0.3-2.1-0.6-4.1-0.6-6.3c0-2.4,0.4-4.6,0.7-6.9h-17.1
		c-0.2,2.3-0.7,4.5-0.7,6.9C142,9,142.4,11.1,142.6,13.2z"/>
</g>
</svg>
